<svg width="19" height="23" viewBox="0 0 19 23" fill="none" xmlns="http://www.w3.org/2000/svg">
<path d="M15.7366 12.1323C15.7691 15.5882 18.8087 16.7382 18.8424 16.7529C18.8167 16.834 18.3567 18.3918 17.2409 20.0009C16.2765 21.392 15.2754 22.778 13.6985 22.8068C12.1491 22.8349 11.6508 21.9 9.87933 21.9C8.10839 21.9 7.55482 22.778 6.08808 22.8349C4.56596 22.8918 3.40689 21.3306 2.43437 19.9445C0.44716 17.1093 -1.07148 11.9329 0.96767 8.43876C1.98068 6.70354 3.791 5.60473 5.75594 5.57655C7.25062 5.54842 8.66142 6.5689 9.57513 6.5689C10.4883 6.5689 12.2027 5.34168 14.005 5.52191C14.7595 5.5529 16.8774 5.82268 18.2374 7.78715C18.1278 7.85418 15.7103 9.24304 15.7366 12.1323V12.1323ZM12.8245 3.64618C13.6326 2.68087 14.1765 1.33707 14.0281 0C12.8633 0.0461995 11.4548 0.765993 10.6193 1.73077C9.87053 2.58513 9.21478 3.95258 9.39171 5.26318C10.69 5.36231 12.0164 4.6121 12.8245 3.64618" fill="black"/>
</svg>
